/vscmnt/brussel_pixiu_data/_data_brussel/112/vsc11236/PredSimResults/SUBJ04opt3D/worker_09.mot
version=1
nRows=11
nColumns=50
inDegrees=yes
endheader
                time	         pelvis_tilt	         pelvis_list	     pelvis_rotation	           pelvis_tx	           pelvis_ty	           pelvis_tz	       hip_flexion_r	     hip_adduction_r	      hip_rotation_r	        knee_angle_r	       ankle_angle_r	         mtp_angle_r	       hip_flexion_l	     hip_adduction_l	      hip_rotation_l	        knee_angle_l	       ankle_angle_l	         mtp_angle_l	    lumbar_extension	      lumbar_bending	     lumbar_rotation	 ercspn_r/activation	 intobl_r/activation	 extobl_r/activation	    abd_r/activation	    add_r/activation	hamstrings_r/activation	bifemsh_r/activation	glut_max_r/activation	iliopsoas_r/activation	rect_fem_r/activation	  vasti_r/activation	gastroc_r/activation	 soleus_r/activation	tib_ant_r/activation	 ercspn_l/activation	 intobl_l/activation	 extobl_l/activation	    abd_l/activation	    add_l/activation	hamstrings_l/activation	bifemsh_l/activation	glut_max_l/activation	iliopsoas_l/activation	rect_fem_l/activation	  vasti_l/activation	gastroc_l/activation	 soleus_l/activation	tib_ant_l/activation	
          1.58219335	         -4.73271542	         -0.07308476	         -7.84122946	          2.21507069	          0.86949464	          0.00661680	        -14.78548181	         -0.48774876	         -5.07295389	         -9.58192003	          7.07560801	         32.60687504	         34.09338589	         -2.63881252	         -7.14670507	        -11.16214302	          6.84707671	          0.26158338	        -12.91597531	          1.17868558	          9.86955299	          0.01567285	          0.00999999	          0.00999999	          0.03575422	          0.00999999	          0.02732041	          0.26300317	          0.01382503	          0.16875801	          0.00999999	          0.00999999	          0.29862384	          0.27055742	          0.01175798	          0.10005324	          0.17993586	          0.00999999	          0.02346243	          0.35449902	          0.08105279	          0.05604646	          0.00999999	          0.14248928	          0.02258470	          0.02882620	          0.00999999	          0.00999999	          0.39949539	
          1.59274131	         -4.76554149	         -0.03956933	         -7.68383708	          2.23333363	          0.86724654	          0.00633404	        -15.19563995	         -0.68975362	         -5.62638868	        -10.93447123	          6.19816600	         34.44089651	         34.04187421	         -2.36004351	         -7.26026781	        -12.75876929	          6.48241146	          0.26336280	        -12.46490072	          0.69858630	         10.08552004	          0.12229752	          0.00999999	          0.00999999	          0.03040843	          0.01053438	          0.04602370	          0.22368033	          0.01175798	          0.15061635	          0.00999999	          0.00999999	          0.25397519	          0.24098331	          0.00999999	          0.08509381	          0.15303281	          0.00999999	          0.01995445	          0.40322028	          0.06994769	          0.04766669	          0.17272629	          0.12118504	          0.01920795	          0.05911805	          0.01382501	          0.01625546	          0.39845519	
          1.60328926	         -4.78100142	          0.05858090	         -7.50326718	          2.25190085	          0.86509627	          0.00603409	        -15.42822841	         -0.98455164	         -6.19914967	        -12.66339008	          5.26965517	         36.20309217	         33.78170864	         -2.11114932	         -7.18117236	        -14.33204538	          6.14180962	          0.23570822	        -11.98576279	          0.14072861	         10.25414037	          0.10401224	          0.00999999	          0.00999999	          0.02586193	          0.00999999	          0.03914250	          0.19023684	          0.00999999	          0.22312904	          0.00999999	          0.00999999	          0.21600217	          0.20495277	          0.00999999	          0.07237104	          0.13015216	          0.00999999	          0.10428162	          0.34593167	          0.07542309	          0.04053982	          0.14690123	          0.10306610	          0.01633608	          0.09613474	          0.01175798	          0.01382503	          0.45332400	
          1.61383722	         -4.78395987	          0.19270971	         -7.29011057	          2.27049297	          0.86323257	          0.00561947	        -15.38410211	         -1.35527013	         -6.78474018	        -14.90284181	          4.25491963	         37.82211787	         33.38337494	         -1.82426729	         -7.14994205	        -15.65118071	          5.63520484	          0.22016593	        -11.51656250	         -0.45089143	         10.36957272	          0.10974439	          0.00999999	          0.00999999	          0.02199519	          0.00999999	          0.03329014	          0.16179364	          0.00999999	          0.20817119	          0.00999999	          0.00999999	          0.18370667	          0.17430932	          0.00999999	          0.06986215	          0.11069250	          0.00999999	          0.14333840	          0.29901370	          0.07269824	          0.03447852	          0.12918493	          0.08765620	          0.01389360	          0.17919636	          0.00999999	          0.01175798	          0.50241661	
          1.62438517	         -4.77662657	          0.35735989	         -7.04671953	          2.28886584	          0.86182524	          0.00508418	        -14.99349477	         -1.80773187	         -7.38172165	        -17.72805147	          3.10857451	         39.18643138	         32.92355833	         -1.49377806	         -7.14572863	        -16.85293450	          5.18189476	          0.18460749	        -11.08826442	         -1.06941648	         10.42941810	          0.15776169	          0.00999999	          0.00999999	          0.01870659	          0.02091317	          0.05131242	          0.13760311	          0.00999999	          0.17704654	          0.00999999	          0.00999999	          0.15623983	          0.14824751	          0.00999999	          0.05941674	          0.09414234	          0.00999999	          0.19310221	          0.26830997	          0.07110510	          0.02932348	          0.10986988	          0.07455031	          0.01181630	          0.29006303	          0.00999999	          0.00999999	          0.52879590	
          1.63493313	         -4.76252747	          0.55488225	         -6.78330647	          2.30683686	          0.86106804	          0.00444053	        -14.20905811	         -2.35796358	         -7.99338302	        -21.17681219	          1.84676925	         39.98466096	         32.40364766	         -1.11547530	         -7.14190050	        -17.96569596	          5.02718820	          0.14683620	        -10.71924454	         -1.71460974	         10.43984778	          0.20178058	          0.00999999	          0.00999999	          0.01590968	          0.07870269	          0.04364047	          0.11702942	          0.00999999	          0.15057548	          0.00999999	          0.00999999	          0.13287968	          0.12608233	          0.00999999	          0.05053306	          0.08006668	          0.00999999	          0.23065066	          0.22819369	          0.06818551	          0.02493919	          0.10992965	          0.06340395	          0.01004959	          0.38308453	          0.01000000	          0.01068562	          0.53346943	
          1.64548108	         -4.74554035	          0.76917174	         -6.49813241	          2.32425391	          0.86114735	          0.00370422	        -12.99923690	         -3.00065319	         -8.62376444	        -25.26878212	          0.50791621	         39.81841694	         31.79532194	         -0.69819557	         -7.11794067	        -18.90641935	          5.13005830	          0.11719864	        -10.42601202	         -2.36560183	         10.39849789	          0.20809010	          0.00999999	          0.00999999	          0.01353095	          0.22481129	          0.03711558	          0.09953181	          0.00999999	          0.12806224	          0.00999999	          0.00999999	          0.11301221	          0.10723117	          0.05953370	          0.04297763	          0.06809553	          0.00999999	          0.25163620	          0.22958188	          0.07041078	          0.02121041	          0.09349356	          0.05392412	          0.00999999	          0.42498101	          0.00999999	          0.00999999	          0.52028905	
          1.65602904	         -4.72818802	          0.97076078	         -6.18926232	          2.34103203	          0.86207385	          0.00291751	        -11.37527214	         -3.71027599	         -9.27079973	        -29.96251016	         -0.82404272	         38.30754601	         31.07285839	         -0.27122179	         -7.06705677	        -19.60909392	          5.43852481	          0.09862111	        -10.21826210	         -2.99087230	         10.30288789	          0.22035032	          0.00999999	          0.00999999	          0.01150787	          0.30624632	          0.03156626	          0.08465034	          0.00999999	          0.10891505	          0.00999999	          0.00999999	          0.09611523	          0.09119854	          0.13724893	          0.03655184	          0.05791425	          0.00999999	          0.27015308	          0.23055842	          0.07557518	          0.01803915	          0.07951490	          0.04586168	          0.00999999	          0.43367534	          0.00999999	          0.00999999	          0.47956958	
          1.66657700	         -4.71119343	          1.13323647	         -5.85746576	          2.35714412	          0.86373404	          0.00212484	         -9.40498176	         -4.45259979	         -9.89815437	        -35.10725708	         -2.02361697	         35.28817952	         30.23528194	          0.13485073	         -6.97888701	        -20.06261728	          5.90395168	          0.09559072	        -10.09788742	         -3.56159537	         10.15207855	          0.24343638	          0.03623392	          0.00999999	          0.00999999	          0.26045800	          0.02684664	          0.07199387	          0.00999999	          0.09263065	          0.00999999	          0.00999999	          0.08174459	          0.07756302	          0.26908354	          0.03108680	          0.04925522	          0.00999999	          0.27680733	          0.20179864	          0.08367614	          0.01534203	          0.06762625	          0.03900468	          0.00999999	          0.41178923	          0.01000000	          0.01000000	          0.43460542	
          1.67712495	         -4.69383383	          1.25518688	         -5.50209931	          2.37260512	          0.86594850	          0.00137853	         -7.19990503	         -5.16108128	        -10.39795272	        -40.46619432	         -2.71925892	         31.04206606	         29.30806850	          0.51026316	         -6.85189182	        -20.29361632	          6.40707203	          0.12675988	        -10.05935888	         -4.07598847	          9.93769175	          0.25529671	          0.03081642	          0.02091961	          0.00999999	          0.22151570	          0.02283267	          0.06122973	          0.00999999	          0.07878101	          0.00999999	          0.00999999	          0.06952257	          0.06596621	          0.26896758	          0.02643887	          0.04189084	          0.00999999	          0.25624920	          0.20315733	          0.08180916	          0.01304817	          0.05751514	          0.03317291	          0.00999999	          0.38054982	          0.00999999	          0.00999999	          0.39345267	
          1.68767291	         -4.67470212	          1.33413338	         -5.11648846	          2.38749889	          0.86856962	          0.00073058	         -4.87921214	         -5.73852309	        -10.71844636	        -45.75989602	         -2.36948485	         27.12738412	         28.31149650	          0.84452047	         -6.69364959	        -20.33103192	          6.84876256	          0.19106265	        -10.09133282	         -4.53297546	          9.65201967	          0.25156759	          0.02620891	          0.02034699	          0.00999999	          0.18839585	          0.01941885	          0.07038613	          0.00999999	          0.08694012	          0.04070038	          0.00999999	          0.05912793	          0.05610329	          0.29609398	          0.02248587	          0.03562755	          0.00999999	          0.23029157	          0.17278234	          0.08447337	          0.01109728	          0.08396314	          0.02821307	          0.00999999	          0.34686595	          0.00999999	          0.00999999	          0.35780779	
